<?xml version="1.0" encoding="UTF-8"?><svg id="Capa_2" xmlns="http://www.w3.org/2000/svg" viewBox="0 0 1500 311.28"><g id="layer"><g><g><path d="M458.21,133.26v45c0,16.66-10.19,23.87-22.62,23.87-16.91,0-21.38-9.45-22.62-23.12h14.42c0,4.97,.99,12.43,8.2,12.43,7.71,0,7.71-8.7,8.2-13.67v-44.75h14.42v.25Z"/><path d="M468.41,167.07c0-5.97,2.73-9.45,6.46-11.69,3.73-2.24,8.7-2.98,13.92-2.98,9.45,0,19.89,3.48,19.89,17.65v25.61c0,2.24,.5,3.73,.75,5.22h-12.68c-.25-2.24-.5-4.23-.5-6.22h-.25c-3.23,5.47-7.96,7.71-14.42,7.71-8.7,0-15.41-4.97-15.41-14.17,0-3.23,1.49-11.19,9.94-14.92,5.72-2.49,12.68-2.73,18.4-2.49v-4.48c0-1.99-1.49-5.72-6.46-5.72s-6.46,4.48-6.22,6.71h-13.43v-.25Zm11.19,18.9c0,3.98,2.98,6.71,6.71,6.71,7.71,0,7.96-8.45,7.96-14.17-4.72,0-14.67,0-14.67,7.46"/><path d="M533.05,159.37h0c2.73-3.98,7.96-6.71,12.68-6.71,14.67,0,21.88,12.18,21.88,24.86,0,11.93-6.46,24.86-20.14,24.86-5.97,0-11.19-2.49-14.17-7.96h-.25v24.61h-13.92v-55.44c0-2.98-.25-6.22-.5-9.45h14.17l.25,5.22Zm9.94,33.56c8.95,0,10.19-8.45,10.19-15.41s-1.24-15.41-10.19-15.41c-7.46,0-10.19,8.95-10.19,15.41s2.73,15.41,10.19,15.41"/><path d="M575.56,167.07c0-5.97,2.73-9.45,6.46-11.69,3.73-2.24,8.7-2.98,13.92-2.98,9.45,0,19.89,3.48,19.89,17.65v25.61c0,2.24,.5,3.73,.75,5.22h-12.68c-.25-2.24-.5-4.23-.5-6.22h-.25c-3.23,5.47-7.96,7.71-14.42,7.71-8.7,0-15.41-4.97-15.41-14.17,0-3.23,1.49-11.19,9.94-14.92,5.72-2.49,12.68-2.73,18.4-2.49v-4.48c0-1.99-1.49-5.72-6.46-5.72s-6.46,4.48-6.22,6.71h-13.43v-.25Zm11.19,18.9c0,3.98,2.98,6.71,6.71,6.71,7.71,0,7.96-8.45,7.96-14.17-4.72,0-14.67,0-14.67,7.46"/><path d="M639.71,159.37l.25,.25c2.98-4.23,7.21-7.21,14.42-7.21,4.72,0,13.67,3.48,15.41,10.19,.75,2.98,.99,5.97,.99,7.46v30.58h-13.92v-28.09c0-4.97-1.49-10.69-8.45-10.69-4.48,0-8.2,3.98-8.45,10.69v28.34h-13.92v-46.99h13.92v5.47h-.25Z"/><rect x="681.97" y="188.21" width="11.93" height="12.43"/><polygon points="736.17 200.89 736.17 133.26 776.45 133.26 776.45 138.98 742.39 138.98 742.39 163.1 774.96 163.1 774.96 168.82 742.39 168.82 742.39 195.17 777.69 195.17 777.69 200.89 736.17 200.89"/><path d="M796.84,200.89h-5.72v-36.3c0-3.73-.25-7.46-.5-10.44h5.72l.25,6.96,.25,.25c3.23-5.72,8.45-8.45,14.67-8.45,15.41,0,16.66,13.67,16.66,18.9v29.34h-5.72v-30.33c0-8.2-4.72-12.93-12.43-12.93-9.2,0-13.43,7.71-13.43,16.16v26.85h.25Z"/><path d="M873.66,193.93l-.25-.25c-3.73,5.47-9.45,8.7-16.16,8.7-13.92,0-19.14-13.18-19.14-25.11s5.22-24.61,19.14-24.61c6.22,0,12.68,2.98,16.16,8.45l.25-.25v-27.35h5.47v56.93c0,3.73,.25,7.46,.5,10.44h-5.72l-.25-6.96Zm-15.41-36.3c-10.69,0-14.17,9.94-14.17,18.9s2.49,20.64,13.18,20.64c12.18,0,15.91-10.19,15.91-20.88,.25-9.7-3.98-18.65-14.92-18.65"/><rect x="893.3" y="133.26" width="5.72" height="67.38"/><path d="M917.42,178.76c.25,9.94,4.72,18.4,16.16,18.4,6.71,0,12.18-4.72,13.67-11.19h5.97c-2.98,11.19-9.94,16.41-21.13,16.41-13.92,0-20.64-11.93-20.64-24.86s6.96-24.86,20.88-24.86c15.66,0,21.38,11.44,21.38,26.11h-36.3Zm30.08-5.22c-.75-8.95-5.47-15.91-15.17-15.91s-13.92,7.71-14.67,15.91h29.83Z"/><path d="M979.82,152.41c8.95,0,16.41,2.98,17.15,12.93h-5.97c-.5-5.97-5.72-7.96-11.69-7.96-5.22,0-10.44,1.99-10.44,7.71,0,6.96,8.95,6.22,21.63,10.69,4.97,1.74,7.96,5.97,7.96,10.94,0,10.44-9.7,15.41-19.64,15.41-8.2,0-17.4-3.73-17.65-14.17h5.97c.5,6.96,6.71,8.95,12.93,8.95s12.18-2.73,12.18-9.45-7.46-7.96-14.92-9.45c-7.46-1.74-14.92-3.98-14.92-12.68,0-9.45,9.2-12.93,17.4-12.93"/><path d="M1024.58,152.41c8.95,0,16.41,2.98,17.15,12.93h-6.22c-.5-5.97-5.72-7.96-11.69-7.96-5.22,0-10.44,1.99-10.44,7.71,0,6.96,8.95,6.22,21.63,10.69,4.97,1.74,7.96,5.97,7.96,10.94,0,10.44-9.7,15.41-19.64,15.41-8.2,0-17.4-3.73-17.65-14.17h5.97c.5,6.96,6.71,8.95,12.93,8.95s12.18-2.73,12.18-9.45-7.46-7.96-14.92-9.45c-7.46-1.74-14.92-3.98-14.92-12.68,.5-9.45,9.45-12.93,17.65-12.93"/><path d="M1100.9,133.26c22.13,0,34.81,11.44,34.81,33.81s-12.68,33.81-34.81,33.81h-18.15v-67.38h18.15v-.25Zm1.49,61.91c18.9,0,26.85-11.19,26.85-28.09,0-19.89-11.69-28.59-30.83-28.09h-9.45v56.19h13.43Z"/><path d="M1155.35,140.22h-6.71v-6.96h6.46v6.96h.25Zm-.5,60.42h-5.72v-46.99h5.72v46.99Z"/><path d="M1185.44,152.41c8.95,0,16.41,2.98,17.15,12.93h-5.97c-.5-5.97-5.72-7.96-11.69-7.96-5.22,0-10.44,1.99-10.44,7.71,0,6.96,8.95,6.22,21.88,10.69,4.72,1.74,7.96,5.97,7.96,10.94,0,10.44-9.94,15.41-19.64,15.41-8.2,0-17.4-3.73-17.65-14.17h6.22c.5,6.96,6.71,8.95,12.93,8.95s12.18-2.73,12.18-9.45-7.46-7.96-14.92-9.45c-7.46-1.74-14.92-3.98-14.92-12.68-.25-9.45,8.7-12.93,16.91-12.93"/><path d="M1246.1,168.32c-.5-7.21-4.97-10.69-12.68-10.69-8.7,0-13.92,8.95-13.92,19.64s5.22,19.89,13.92,19.89c7.21,0,12.43-4.48,12.68-10.94h5.97c-1.49,10.69-7.71,16.16-18.4,16.16-13.92,0-20.64-11.93-20.64-24.86s6.96-24.86,20.88-24.86c9.7,0,17.4,5.72,17.9,15.66h-5.72Z"/><path d="M1305.52,177.27c0,12.43-6.96,24.86-21.88,24.86s-21.88-12.43-21.88-24.86,6.96-24.86,21.88-24.86,21.88,12.68,21.88,24.86m-21.88-19.64c-11.44,0-15.66,10.94-15.66,19.64s4.48,19.64,15.66,19.64,15.66-10.94,15.66-19.64-4.48-19.64-15.66-19.64"/><polygon points="1315.22 153.9 1331.38 192.93 1347.04 153.9 1353.26 153.9 1334.61 200.89 1328.15 200.89 1309 153.9 1315.22 153.9"/><path d="M1363.2,178.76c.25,9.94,4.72,18.4,16.16,18.4,6.71,0,12.18-4.72,13.67-11.19h5.97c-2.98,11.19-9.94,16.41-21.13,16.41-13.92,0-20.64-11.93-20.64-24.86s6.96-24.86,20.88-24.86c15.66,0,21.38,11.44,21.38,26.11h-36.3Zm30.33-5.22c-.75-8.95-5.47-15.91-15.17-15.91s-13.92,7.71-14.67,15.91h29.83Z"/><path d="M1417.65,200.89h-5.72v-36.3c0-3.73-.25-7.46-.5-10.44h5.72l.25,6.96h.25c1.74-4.72,5.97-8.2,10.44-8.2h5.72v5.47c-.99,0-2.24-.5-3.48-.5-8.45,0-12.68,5.97-12.93,14.92v28.09h.25Z"/><polygon points="1446.99 153.9 1462.65 193.18 1478.31 153.9 1484.53 153.9 1458.67 218.79 1452.46 218.79 1459.67 200.89 1440.03 153.9 1446.99 153.9"/><rect x="1484.03" y="192.68" width="7.46" height="7.96"/><path d="M298.85,184.48c.99-11.69,10.69-25.11,27.1-32.57,3.48-1.49,7.46-2.49,11.19-3.23C333.4,65.89,265.28,0,181.74,0S26.11,69.61,26.11,155.64c0,2.73,0,5.22,.25,7.96,1.74-1.74,2.98-2.98,3.23-2.73-.25-.25,3.48,6.22,2.73,14.92,4.48-7.46,11.44-10.44,10.94-10.44,.25,0,3.48,12.93,0,23.62-1.99,6.22-5.47,11.44-9.45,15.17,20.39,62.16,78.81,107.16,147.93,107.16,32.07,0,62.16-9.7,86.77-26.6-.5-.5-.99-.99-1.24-1.74-7.96-11.19-8.2-24.12-5.47-31.58,8.7-.99,20.39,3.98,28.34,15.17q.25,.25,.25,.5c21.38-20.88,36.8-47.98,43.26-78.32-13.92,3.48-27.1,.5-34.81-4.23m-40.77-54.2c2.98-9.94,12.18-18.15,12.18-17.9-.25-.25,3.48,5.47,2.98,13.67,3.98-6.96,10.19-9.94,9.94-9.94,.25,0,3.48,11.93,.5,21.63-3.73,12.43-13.18,20.14-20.39,22.38-5.72-5.72-8.7-17.4-5.22-29.83m-75.08,30.83c15.17-4.97,33.56-.5,33.56,0,0-.5-4.23,9.2-14.92,15.66,12.43-.99,21.38,4.48,21.13,3.98,.25,.25-11.93,14.67-27.1,19.64-19.14,6.22-37.04,.5-46.49-6.46,2.73-12.93,14.92-26.6,33.81-32.82m-125.06,19.39c-.25,.5,8.7-4.97,21.13-3.98-10.69-6.46-14.92-16.16-14.92-15.66,0-.25,18.4-4.97,33.56,0,19.14,6.22,30.33,21.38,33.56,32.57-9.45,8.7-27.35,12.68-46.49,6.46-14.92-4.72-27.1-19.14-26.85-19.39m68.87,69.61c-9.45,12.93-27.1,20.14-27.1,19.89,.25,.5-1.99-9.94,2.73-21.38-9.45,8.2-19.89,9.2-19.39,9.2-.25,0,.99-18.9,10.44-31.82,11.69-16.16,29.83-22.13,41.52-21.88,5.22,11.69,3.48,29.83-8.2,46m-6.96-105.17c0-15.91,9.94-32.07,10.19-32.07-.5-.25,7.46,6.71,10.19,18.9,2.73-12.18,10.69-19.14,10.19-18.9,.25-.25,10.19,15.91,10.19,32.07,0,19.89-10.94,35.3-20.64,42.02-10.69-6.22-20.14-21.88-20.14-42.02m77.82,112.87c.5-.25-9.94-.99-19.39-9.2,4.97,11.44,2.49,21.88,2.73,21.38,0,.25-17.65-6.96-27.1-19.89-11.69-16.16-11.93-35.06-8.2-46.24,12.68-1.49,29.59,5.72,41.52,21.88,9.45,13.18,10.94,32.07,10.44,32.07m3.73-22.62c-.25,.25,5.97-3.48,14.42-2.73-7.46-4.48-10.19-11.19-10.19-10.69,0-.25,12.68-3.23,23.12,0,13.18,4.23,20.64,14.67,23.12,22.38-6.46,5.97-18.65,8.7-31.82,4.48-10.44-3.23-18.9-13.18-18.65-13.43m47.24,47.74c-6.46,8.95-18.4,13.92-18.65,13.67,.25,.25-1.49-6.71,1.99-14.67-6.46,5.72-13.67,6.22-13.43,6.22-.25,0,.75-12.93,7.21-21.88,8.2-11.19,20.39-15.17,28.34-15.17,3.73,8.2,2.49,20.88-5.47,31.82m9.2-43.01c-7.71-4.48-14.17-15.17-14.17-28.84,0-10.94,6.96-22.13,6.96-21.88-.25-.25,5.22,4.72,6.96,12.93,1.99-8.45,7.46-13.18,6.96-12.93,.25-.25,6.96,10.94,6.96,21.88,.5,13.67-7.21,24.12-13.67,28.84m38.04,8.7c-13.18,4.23-25.36,.25-31.82-4.48,1.74-8.7,9.94-18.15,23.12-22.38,10.44-3.48,23.12-.25,23.12,0,0-.25-2.73,6.46-10.19,10.69,8.45-.75,14.67,2.98,14.42,2.73,0,.25-8.2,10.19-18.65,13.43m-9.94,47.98c-.25,.25,1.49-6.71-1.99-14.67,6.46,5.72,13.67,6.22,13.43,6.22,.25,0-.75-12.43-6.71-21.38-6.71,6.46-13.92,12.43-21.88,17.9,6.46,7.96,16.91,12.18,17.16,11.93M15.66,180c-4.23,13.43-1.49,25.86,4.72,32.57,4.23-1.24,8.95-4.23,13.43-8.45-4.23-12.93-6.71-26.35-7.46-40.28-3.23,3.23-8.45,9.2-10.69,16.16M377.66,78.07c10.19-4.97,14.67-13.43,14.67-12.93,.25-.25-16.16-5.97-30.33-2.73-17.65,3.98-29.59,15.41-33.07,26.6,7.96,6.96,23.62,13.67,41.27,9.7,14.17-3.23,26.35-15.17,26.11-15.41,.25,.5-7.46-5.22-18.65-5.22M34.31,258.82c6.71-5.72,8.45-12.93,8.45-12.43,0-.25-13.18-1.24-23.12,3.73-12.43,6.46-19.39,17.4-19.64,26.35,7.21,3.73,20.39,5.72,32.82-.75,9.94-4.97,16.91-16.41,16.66-16.66,.25,.5-6.71-2.49-15.17-.25m310.03-94.73c8.95-6.71,11.93-15.91,11.93-15.41,0-.25-8.95-1.49-18.9,.25,0,2.24,.25,4.48,.25,6.96,0,11.19-1.24,22.38-3.48,32.82,2.49-.75,4.97-1.49,7.46-2.73,13.18-5.97,22.87-20.14,22.62-20.39-.25,.5-8.95-3.48-19.89-1.49" fill="#ed1b23"/></g><g><path d="M453.22,36.54c2.86,2.38,4.29,5.66,4.29,9.84s-1.43,7.46-4.29,9.84c-2.86,2.38-6.78,3.57-11.77,3.57h-9.51v11.66h-5.5V32.96h15.01c4.98,0,8.91,1.19,11.77,3.57Zm-3.96,16.25c1.83-1.48,2.75-3.62,2.75-6.4s-.92-4.92-2.75-6.41-4.49-2.23-7.97-2.23h-9.35v17.27h9.35c3.48,0,6.14-.74,7.97-2.23Z"/><path d="M471.26,43.36c1.8-.88,3.98-1.32,6.54-1.32v5.11c-.29-.04-.7-.06-1.21-.06-2.86,0-5.11,.85-6.74,2.56-1.63,1.7-2.45,4.13-2.45,7.29v14.52h-5.28v-29.14h5.06v4.89c.92-1.69,2.27-2.97,4.07-3.85Z"/><path d="M486.49,69.86c-2.31-1.28-4.12-3.05-5.42-5.31s-1.95-4.81-1.95-7.67,.65-5.42,1.95-7.67,3.11-4.01,5.42-5.28,4.91-1.9,7.81-1.9,5.49,.63,7.78,1.9c2.29,1.26,4.09,3.02,5.39,5.28s1.95,4.81,1.95,7.67-.65,5.42-1.95,7.67-3.1,4.02-5.39,5.31c-2.29,1.28-4.89,1.92-7.78,1.92s-5.5-.64-7.81-1.92Zm12.84-3.99c1.48-.86,2.65-2.07,3.49-3.63,.84-1.56,1.26-3.35,1.26-5.36s-.42-3.8-1.26-5.36c-.84-1.56-2.01-2.76-3.49-3.6-1.49-.84-3.16-1.26-5.03-1.26s-3.55,.42-5.03,1.26c-1.48,.84-2.66,2.04-3.52,3.6-.86,1.56-1.29,3.35-1.29,5.36s.43,3.8,1.29,5.36c.86,1.56,2.03,2.77,3.52,3.63,1.49,.86,3.16,1.29,5.03,1.29s3.54-.43,5.03-1.29Z"/><path d="M542.02,30.65v40.8h-5.06v-4.62c-1.17,1.61-2.66,2.84-4.45,3.68-1.8,.84-3.78,1.26-5.94,1.26-2.82,0-5.35-.62-7.59-1.87-2.24-1.25-3.99-3-5.25-5.25-1.26-2.25-1.9-4.85-1.9-7.78s.63-5.52,1.9-7.75c1.26-2.23,3.02-3.98,5.25-5.22,2.24-1.25,4.77-1.87,7.59-1.87,2.09,0,4.02,.39,5.77,1.18,1.76,.79,3.23,1.95,4.4,3.49V30.65h5.28Zm-10.01,35.22c1.5-.86,2.68-2.07,3.52-3.63,.84-1.56,1.26-3.35,1.26-5.36s-.42-3.8-1.26-5.36c-.84-1.56-2.02-2.76-3.52-3.6-1.5-.84-3.17-1.26-5-1.26s-3.55,.42-5.03,1.26c-1.48,.84-2.66,2.04-3.52,3.6-.86,1.56-1.29,3.35-1.29,5.36s.43,3.8,1.29,5.36c.86,1.56,2.03,2.77,3.52,3.63,1.49,.86,3.16,1.29,5.03,1.29s3.5-.43,5-1.29Z"/><path d="M576.99,42.31v29.14h-5v-4.4c-1.06,1.5-2.46,2.67-4.21,3.49-1.74,.82-3.64,1.24-5.69,1.24-3.89,0-6.95-1.07-9.18-3.22-2.24-2.14-3.35-5.31-3.35-9.48v-16.77h5.28v16.17c0,2.82,.68,4.96,2.03,6.41,1.35,1.45,3.3,2.17,5.83,2.17,2.78,0,4.98-.84,6.6-2.53,1.61-1.69,2.42-4.07,2.42-7.15v-15.07h5.28Z"/><path d="M589.61,69.86c-2.33-1.28-4.15-3.05-5.47-5.31-1.32-2.25-1.98-4.81-1.98-7.67s.66-5.42,1.98-7.67c1.32-2.25,3.14-4.01,5.47-5.28,2.33-1.26,4.97-1.9,7.94-1.9,2.64,0,4.99,.53,7.07,1.59,2.07,1.06,3.68,2.6,4.81,4.62l-4.01,2.58c-.92-1.39-2.05-2.44-3.41-3.13-1.35-.7-2.86-1.05-4.51-1.05-1.91,0-3.62,.42-5.14,1.26-1.52,.84-2.71,2.04-3.57,3.6-.86,1.56-1.29,3.35-1.29,5.36s.43,3.86,1.29,5.42c.86,1.56,2.05,2.76,3.57,3.6,1.52,.84,3.23,1.26,5.14,1.26,1.65,0,3.15-.35,4.51-1.04,1.36-.7,2.49-1.74,3.41-3.13l4.01,2.53c-1.14,2.02-2.74,3.57-4.81,4.65s-4.43,1.62-7.07,1.62c-2.97,0-5.62-.64-7.94-1.92Z"/><path d="M630.82,69.75c-.77,.66-1.72,1.16-2.86,1.51-1.14,.35-2.31,.52-3.52,.52-2.93,0-5.21-.79-6.82-2.36-1.61-1.58-2.42-3.83-2.42-6.76v-16h-4.95v-4.34h4.95v-6.38h5.28v6.38h8.36v4.34h-8.36v15.78c0,1.58,.39,2.79,1.18,3.63,.79,.84,1.92,1.26,3.38,1.26,1.61,0,2.99-.46,4.12-1.37l1.65,3.79Z"/><path d="M638.68,69.86c-2.31-1.28-4.12-3.05-5.42-5.31s-1.95-4.81-1.95-7.67,.65-5.42,1.95-7.67,3.11-4.01,5.42-5.28,4.91-1.9,7.81-1.9,5.49,.63,7.78,1.9c2.29,1.26,4.09,3.02,5.39,5.28s1.95,4.81,1.95,7.67-.65,5.42-1.95,7.67-3.1,4.02-5.39,5.31c-2.29,1.28-4.89,1.92-7.78,1.92s-5.5-.64-7.81-1.92Zm12.84-3.99c1.48-.86,2.65-2.07,3.49-3.63,.84-1.56,1.26-3.35,1.26-5.36s-.42-3.8-1.26-5.36c-.84-1.56-2.01-2.76-3.49-3.6-1.49-.84-3.16-1.26-5.03-1.26s-3.55,.42-5.03,1.26c-1.48,.84-2.66,2.04-3.52,3.6-.86,1.56-1.29,3.35-1.29,5.36s.43,3.8,1.29,5.36c.86,1.56,2.03,2.77,3.52,3.63,1.49,.86,3.16,1.29,5.03,1.29s3.54-.43,5.03-1.29Z"/><path d="M706.86,36.54c2.86,2.38,4.29,5.66,4.29,9.84s-1.43,7.46-4.29,9.84c-2.86,2.38-6.78,3.57-11.77,3.57h-9.51v11.66h-5.5V32.96h15.01c4.98,0,8.91,1.19,11.77,3.57Zm-3.96,16.25c1.83-1.48,2.75-3.62,2.75-6.4s-.92-4.92-2.75-6.41-4.49-2.23-7.97-2.23h-9.35v17.27h9.35c3.48,0,6.14-.74,7.97-2.23Z"/><path d="M724.89,43.36c1.8-.88,3.98-1.32,6.54-1.32v5.11c-.29-.04-.7-.06-1.21-.06-2.86,0-5.11,.85-6.74,2.56-1.63,1.7-2.45,4.13-2.45,7.29v14.52h-5.28v-29.14h5.06v4.89c.92-1.69,2.27-2.97,4.07-3.85Z"/><path d="M740.13,69.86c-2.31-1.28-4.12-3.05-5.42-5.31s-1.95-4.81-1.95-7.67,.65-5.42,1.95-7.67,3.11-4.01,5.42-5.28,4.91-1.9,7.81-1.9,5.49,.63,7.78,1.9c2.29,1.26,4.09,3.02,5.39,5.28s1.95,4.81,1.95,7.67-.65,5.42-1.95,7.67-3.1,4.02-5.39,5.31c-2.29,1.28-4.89,1.92-7.78,1.92s-5.5-.64-7.81-1.92Zm12.84-3.99c1.48-.86,2.65-2.07,3.49-3.63,.84-1.56,1.26-3.35,1.26-5.36s-.42-3.8-1.26-5.36c-.84-1.56-2.01-2.76-3.49-3.6-1.49-.84-3.16-1.26-5.03-1.26s-3.55,.42-5.03,1.26c-1.48,.84-2.66,2.04-3.52,3.6-.86,1.56-1.29,3.35-1.29,5.36s.43,3.8,1.29,5.36c.86,1.56,2.03,2.77,3.52,3.63,1.49,.86,3.16,1.29,5.03,1.29s3.54-.43,5.03-1.29Z"/><path d="M813.34,45.22c2.14,2.13,3.22,5.28,3.22,9.46v16.77h-5.28v-16.17c0-2.82-.65-4.95-1.95-6.38-1.3-1.43-3.16-2.14-5.58-2.14-2.68,0-4.8,.83-6.38,2.5-1.58,1.67-2.36,4.06-2.36,7.18v15.01h-5.28v-16.17c0-2.82-.65-4.95-1.95-6.38s-3.16-2.14-5.58-2.14c-2.68,0-4.8,.83-6.38,2.5-1.58,1.67-2.36,4.06-2.36,7.18v15.01h-5.28v-29.14h5.06v4.34c1.06-1.5,2.46-2.65,4.18-3.44,1.72-.79,3.69-1.18,5.89-1.18s4.29,.46,6.05,1.37c1.76,.92,3.12,2.25,4.07,4.01,1.1-1.69,2.63-3,4.59-3.96,1.96-.95,4.17-1.43,6.63-1.43,3.67,0,6.57,1.06,8.72,3.19Z"/><path d="M828.92,69.86c-2.31-1.28-4.12-3.05-5.42-5.31s-1.95-4.81-1.95-7.67,.65-5.42,1.95-7.67,3.11-4.01,5.42-5.28,4.91-1.9,7.81-1.9,5.49,.63,7.78,1.9c2.29,1.26,4.09,3.02,5.39,5.28s1.95,4.81,1.95,7.67-.65,5.42-1.95,7.67-3.1,4.02-5.39,5.31c-2.29,1.28-4.89,1.92-7.78,1.92s-5.5-.64-7.81-1.92Zm12.84-3.99c1.48-.86,2.65-2.07,3.49-3.63,.84-1.56,1.26-3.35,1.26-5.36s-.42-3.8-1.26-5.36c-.84-1.56-2.01-2.76-3.49-3.6-1.49-.84-3.16-1.26-5.03-1.26s-3.55,.42-5.03,1.26c-1.48,.84-2.66,2.04-3.52,3.6-.86,1.56-1.29,3.35-1.29,5.36s.43,3.8,1.29,5.36c.86,1.56,2.03,2.77,3.52,3.63,1.49,.86,3.16,1.29,5.03,1.29s3.54-.43,5.03-1.29Z"/><path d="M861.72,69.86c-2.33-1.28-4.15-3.05-5.47-5.31-1.32-2.25-1.98-4.81-1.98-7.67s.66-5.42,1.98-7.67c1.32-2.25,3.14-4.01,5.47-5.28,2.33-1.26,4.97-1.9,7.94-1.9,2.64,0,4.99,.53,7.07,1.59,2.07,1.06,3.68,2.6,4.81,4.62l-4.01,2.58c-.92-1.39-2.05-2.44-3.41-3.13-1.35-.7-2.86-1.05-4.51-1.05-1.91,0-3.62,.42-5.14,1.26-1.52,.84-2.71,2.04-3.57,3.6-.86,1.56-1.29,3.35-1.29,5.36s.43,3.86,1.29,5.42c.86,1.56,2.05,2.76,3.57,3.6,1.52,.84,3.23,1.26,5.14,1.26,1.65,0,3.15-.35,4.51-1.04,1.36-.7,2.49-1.74,3.41-3.13l4.01,2.53c-1.14,2.02-2.74,3.57-4.81,4.65s-4.43,1.62-7.07,1.62c-2.97,0-5.62-.64-7.94-1.92Z"/><path d="M886.25,35.71c-.68-.66-1.02-1.47-1.02-2.42s.34-1.77,1.02-2.45,1.53-1.02,2.56-1.02,1.88,.32,2.56,.96c.68,.64,1.02,1.44,1.02,2.39s-.34,1.82-1.02,2.5c-.68,.68-1.53,1.02-2.56,1.02s-1.88-.33-2.56-.99Zm-.08,6.6h5.28v29.14h-5.28v-29.14Z"/><path d="M903.98,69.86c-2.31-1.28-4.12-3.05-5.42-5.31s-1.95-4.81-1.95-7.67,.65-5.42,1.95-7.67,3.11-4.01,5.42-5.28,4.91-1.9,7.81-1.9,5.49,.63,7.78,1.9c2.29,1.26,4.09,3.02,5.39,5.28s1.95,4.81,1.95,7.67-.65,5.42-1.95,7.67-3.1,4.02-5.39,5.31c-2.29,1.28-4.89,1.92-7.78,1.92s-5.5-.64-7.81-1.92Zm12.84-3.99c1.48-.86,2.65-2.07,3.49-3.63,.84-1.56,1.26-3.35,1.26-5.36s-.42-3.8-1.26-5.36c-.84-1.56-2.01-2.76-3.49-3.6-1.49-.84-3.16-1.26-5.03-1.26s-3.55,.42-5.03,1.26c-1.48,.84-2.66,2.04-3.52,3.6-.86,1.56-1.29,3.35-1.29,5.36s.43,3.8,1.29,5.36c.86,1.56,2.03,2.77,3.52,3.63,1.49,.86,3.16,1.29,5.03,1.29s3.54-.43,5.03-1.29Z"/><path d="M956.4,45.25c2.18,2.15,3.27,5.29,3.27,9.43v16.77h-5.28v-16.17c0-2.82-.68-4.95-2.03-6.38-1.36-1.43-3.3-2.14-5.83-2.14-2.86,0-5.11,.83-6.76,2.5-1.65,1.67-2.47,4.06-2.47,7.18v15.01h-5.28v-29.14h5.06v4.4c1.06-1.5,2.5-2.66,4.32-3.46s3.88-1.21,6.19-1.21c3.7,0,6.64,1.07,8.82,3.22Z"/><path d="M987.14,45c2.15,1.98,3.22,4.93,3.22,8.85v17.6h-5v-3.85c-.88,1.36-2.13,2.39-3.77,3.11-1.63,.71-3.56,1.07-5.8,1.07-3.26,0-5.88-.79-7.84-2.36-1.96-1.58-2.94-3.65-2.94-6.21s.93-4.63,2.8-6.19,4.84-2.34,8.91-2.34h8.36v-1.05c0-2.27-.66-4.01-1.98-5.22-1.32-1.21-3.26-1.81-5.83-1.81-1.72,0-3.41,.28-5.06,.85s-3.04,1.33-4.18,2.28l-2.2-3.96c1.5-1.21,3.3-2.13,5.39-2.78,2.09-.64,4.31-.96,6.66-.96,4.03,0,7.12,.99,9.26,2.97Zm-5.25,21.36c1.46-.9,2.53-2.17,3.19-3.82v-4.07h-8.14c-4.47,0-6.71,1.5-6.71,4.51,0,1.47,.57,2.62,1.7,3.46,1.14,.84,2.71,1.26,4.73,1.26s3.76-.45,5.22-1.35Z"/><path d="M1025.6,30.65v40.8h-5.06v-4.62c-1.17,1.61-2.66,2.84-4.45,3.68-1.8,.84-3.78,1.26-5.94,1.26-2.82,0-5.35-.62-7.59-1.87-2.24-1.25-3.99-3-5.25-5.25-1.26-2.25-1.9-4.85-1.9-7.78s.63-5.52,1.9-7.75c1.26-2.23,3.02-3.98,5.25-5.22,2.24-1.25,4.77-1.87,7.59-1.87,2.09,0,4.02,.39,5.77,1.18,1.76,.79,3.23,1.95,4.4,3.49V30.65h5.28Zm-10.01,35.22c1.5-.86,2.68-2.07,3.52-3.63,.84-1.56,1.26-3.35,1.26-5.36s-.42-3.8-1.26-5.36c-.84-1.56-2.02-2.76-3.52-3.6-1.5-.84-3.17-1.26-5-1.26s-3.55,.42-5.03,1.26c-1.48,.84-2.66,2.04-3.52,3.6-.86,1.56-1.29,3.35-1.29,5.36s.43,3.8,1.29,5.36c.86,1.56,2.03,2.77,3.52,3.63,1.49,.86,3.16,1.29,5.03,1.29s3.5-.43,5-1.29Z"/><path d="M1038.08,69.86c-2.31-1.28-4.12-3.05-5.42-5.31s-1.95-4.81-1.95-7.67,.65-5.42,1.95-7.67,3.11-4.01,5.42-5.28,4.91-1.9,7.81-1.9,5.49,.63,7.78,1.9c2.29,1.26,4.09,3.02,5.39,5.28s1.95,4.81,1.95,7.67-.65,5.42-1.95,7.67-3.1,4.02-5.39,5.31c-2.29,1.28-4.89,1.92-7.78,1.92s-5.5-.64-7.81-1.92Zm12.84-3.99c1.48-.86,2.65-2.07,3.49-3.63,.84-1.56,1.26-3.35,1.26-5.36s-.42-3.8-1.26-5.36c-.84-1.56-2.01-2.76-3.49-3.6-1.49-.84-3.16-1.26-5.03-1.26s-3.55,.42-5.03,1.26c-1.48,.84-2.66,2.04-3.52,3.6-.86,1.56-1.29,3.35-1.29,5.36s.43,3.8,1.29,5.36c.86,1.56,2.03,2.77,3.52,3.63,1.49,.86,3.16,1.29,5.03,1.29s3.54-.43,5.03-1.29Z"/><path d="M1104.94,58.64h-23.64c.33,2.57,1.46,4.63,3.38,6.19,1.93,1.56,4.32,2.34,7.17,2.34,3.48,0,6.29-1.17,8.41-3.52l2.91,3.41c-1.32,1.54-2.96,2.71-4.92,3.52-1.96,.81-4.15,1.21-6.57,1.21-3.08,0-5.81-.63-8.19-1.9-2.38-1.26-4.22-3.03-5.53-5.31-1.3-2.27-1.95-4.84-1.95-7.7s.63-5.37,1.9-7.64c1.26-2.27,3.01-4.04,5.22-5.31,2.22-1.26,4.72-1.9,7.5-1.9s5.27,.63,7.45,1.9c2.18,1.26,3.88,3.03,5.11,5.31,1.23,2.27,1.84,4.88,1.84,7.81,0,.4-.04,.93-.11,1.6Zm-20.65-9.84c-1.7,1.54-2.7,3.56-3,6.05h18.7c-.29-2.46-1.29-4.46-3-6.02-1.7-1.56-3.82-2.34-6.35-2.34s-4.65,.77-6.35,2.31Z"/><path d="M1134.55,45.25c2.18,2.15,3.27,5.29,3.27,9.43v16.77h-5.28v-16.17c0-2.82-.68-4.95-2.03-6.38-1.36-1.43-3.3-2.14-5.83-2.14-2.86,0-5.11,.83-6.76,2.5-1.65,1.67-2.47,4.06-2.47,7.18v15.01h-5.28v-29.14h5.06v4.4c1.06-1.5,2.5-2.66,4.32-3.46s3.88-1.21,6.19-1.21c3.7,0,6.64,1.07,8.82,3.22Z"/><path d="M1165.56,69.33c-3.1-1.7-5.53-4.05-7.29-7.04s-2.64-6.35-2.64-10.09,.88-7.1,2.64-10.09c1.76-2.99,4.2-5.33,7.31-7.04s6.6-2.56,10.45-2.56c3.01,0,5.75,.5,8.25,1.51,2.49,1.01,4.62,2.5,6.38,4.48l-3.57,3.46c-2.9-3.04-6.51-4.56-10.83-4.56-2.86,0-5.44,.64-7.75,1.92-2.31,1.28-4.12,3.05-5.41,5.31-1.3,2.25-1.95,4.77-1.95,7.56s.65,5.31,1.95,7.56c1.3,2.25,3.11,4.02,5.41,5.31s4.89,1.92,7.75,1.92c4.29,0,7.9-1.54,10.83-4.62l3.57,3.46c-1.76,1.98-3.9,3.48-6.41,4.51-2.51,1.03-5.27,1.54-8.27,1.54-3.85,0-7.32-.85-10.42-2.56Z"/><path d="M1199.02,69.86c-2.31-1.28-4.12-3.05-5.42-5.31s-1.95-4.81-1.95-7.67,.65-5.42,1.95-7.67,3.11-4.01,5.42-5.28,4.91-1.9,7.81-1.9,5.49,.63,7.78,1.9c2.29,1.26,4.09,3.02,5.39,5.28s1.95,4.81,1.95,7.67-.65,5.42-1.95,7.67-3.1,4.02-5.39,5.31c-2.29,1.28-4.89,1.92-7.78,1.92s-5.5-.64-7.81-1.92Zm12.84-3.99c1.48-.86,2.65-2.07,3.49-3.63,.84-1.56,1.26-3.35,1.26-5.36s-.42-3.8-1.26-5.36c-.84-1.56-2.01-2.76-3.49-3.6-1.49-.84-3.16-1.26-5.03-1.26s-3.55,.42-5.03,1.26c-1.48,.84-2.66,2.04-3.52,3.6-.86,1.56-1.29,3.35-1.29,5.36s.43,3.8,1.29,5.36c.86,1.56,2.03,2.77,3.52,3.63,1.49,.86,3.16,1.29,5.03,1.29s3.54-.43,5.03-1.29Z"/><path d="M1251.44,45.25c2.18,2.15,3.27,5.29,3.27,9.43v16.77h-5.28v-16.17c0-2.82-.68-4.95-2.03-6.38-1.36-1.43-3.3-2.14-5.83-2.14-2.86,0-5.11,.83-6.76,2.5-1.65,1.67-2.47,4.06-2.47,7.18v15.01h-5.28v-29.14h5.06v4.4c1.06-1.5,2.5-2.66,4.32-3.46s3.88-1.21,6.19-1.21c3.7,0,6.64,1.07,8.82,3.22Z"/><path d="M1254.99,82.01c-1.1-.29-2.02-.73-2.75-1.32l1.7-4.07c1.1,.92,2.53,1.38,4.29,1.38,1.39,0,2.46-.43,3.22-1.29,.75-.86,1.13-2.14,1.13-3.82v-30.57h5.28v30.46c0,3.01-.81,5.37-2.42,7.09-1.61,1.72-3.9,2.58-6.87,2.58-1.28,0-2.47-.15-3.57-.44Zm7.67-46.3c-.68-.66-1.02-1.47-1.02-2.42s.34-1.77,1.02-2.45,1.53-1.02,2.56-1.02,1.88,.32,2.56,.96c.68,.64,1.02,1.44,1.02,2.39s-.34,1.82-1.02,2.5c-.68,.68-1.53,1.02-2.56,1.02s-1.88-.33-2.56-.99Z"/><path d="M1302.88,42.31v29.14h-5v-4.4c-1.06,1.5-2.46,2.67-4.21,3.49-1.74,.82-3.64,1.24-5.69,1.24-3.89,0-6.95-1.07-9.18-3.22-2.24-2.14-3.35-5.31-3.35-9.48v-16.77h5.28v16.17c0,2.82,.68,4.96,2.03,6.41,1.35,1.45,3.3,2.17,5.83,2.17,2.78,0,4.98-.84,6.6-2.53,1.61-1.69,2.42-4.07,2.42-7.15v-15.07h5.28Z"/><path d="M1335.13,45.25c2.18,2.15,3.27,5.29,3.27,9.43v16.77h-5.28v-16.17c0-2.82-.68-4.95-2.03-6.38-1.36-1.43-3.3-2.14-5.83-2.14-2.86,0-5.11,.83-6.76,2.5-1.65,1.67-2.47,4.06-2.47,7.18v15.01h-5.28v-29.14h5.06v4.4c1.06-1.5,2.5-2.66,4.32-3.46s3.88-1.21,6.19-1.21c3.7,0,6.64,1.07,8.82,3.22Z"/><path d="M1362.37,69.75c-.77,.66-1.72,1.16-2.86,1.51-1.14,.35-2.31,.52-3.52,.52-2.93,0-5.21-.79-6.82-2.36-1.61-1.58-2.42-3.83-2.42-6.76v-16h-4.95v-4.34h4.95v-6.38h5.28v6.38h8.36v4.34h-8.36v15.78c0,1.58,.39,2.79,1.18,3.63,.79,.84,1.92,1.26,3.38,1.26,1.61,0,2.99-.46,4.12-1.37l1.65,3.79Z"/><path d="M1370.24,69.86c-2.31-1.28-4.12-3.05-5.42-5.31s-1.95-4.81-1.95-7.67,.65-5.42,1.95-7.67,3.11-4.01,5.42-5.28,4.91-1.9,7.81-1.9,5.49,.63,7.78,1.9c2.29,1.26,4.09,3.02,5.39,5.28s1.95,4.81,1.95,7.67-.65,5.42-1.95,7.67-3.1,4.02-5.39,5.31c-2.29,1.28-4.89,1.92-7.78,1.92s-5.5-.64-7.81-1.92Zm12.84-3.99c1.48-.86,2.65-2.07,3.49-3.63,.84-1.56,1.26-3.35,1.26-5.36s-.42-3.8-1.26-5.36c-.84-1.56-2.01-2.76-3.49-3.6-1.49-.84-3.16-1.26-5.03-1.26s-3.55,.42-5.03,1.26c-1.48,.84-2.66,2.04-3.52,3.6-.86,1.56-1.29,3.35-1.29,5.36s.43,3.8,1.29,5.36c.86,1.56,2.03,2.77,3.52,3.63,1.49,.86,3.16,1.29,5.03,1.29s3.54-.43,5.03-1.29Z"/><path d="M1415.63,69.86c-2.33-1.28-4.15-3.05-5.47-5.31-1.32-2.25-1.98-4.81-1.98-7.67s.66-5.42,1.98-7.67c1.32-2.25,3.14-4.01,5.47-5.28,2.33-1.26,4.97-1.9,7.94-1.9,2.64,0,4.99,.53,7.07,1.59,2.07,1.06,3.68,2.6,4.81,4.62l-4.01,2.58c-.92-1.39-2.05-2.44-3.41-3.13-1.35-.7-2.86-1.05-4.51-1.05-1.91,0-3.62,.42-5.14,1.26-1.52,.84-2.71,2.04-3.57,3.6-.86,1.56-1.29,3.35-1.29,5.36s.43,3.86,1.29,5.42c.86,1.56,2.05,2.76,3.57,3.6,1.52,.84,3.23,1.26,5.14,1.26,1.65,0,3.15-.35,4.51-1.04,1.36-.7,2.49-1.74,3.41-3.13l4.01,2.53c-1.14,2.02-2.74,3.57-4.81,4.65s-4.43,1.62-7.07,1.62c-2.97,0-5.62-.64-7.94-1.92Z"/><path d="M1444.3,69.86c-2.31-1.28-4.12-3.05-5.42-5.31s-1.95-4.81-1.95-7.67,.65-5.42,1.95-7.67,3.11-4.01,5.42-5.28,4.91-1.9,7.81-1.9,5.49,.63,7.78,1.9c2.29,1.26,4.09,3.02,5.39,5.28s1.95,4.81,1.95,7.67-.65,5.42-1.95,7.67-3.1,4.02-5.39,5.31c-2.29,1.28-4.89,1.92-7.78,1.92s-5.5-.64-7.81-1.92Zm12.84-3.99c1.48-.86,2.65-2.07,3.49-3.63,.84-1.56,1.26-3.35,1.26-5.36s-.42-3.8-1.26-5.36c-.84-1.56-2.01-2.76-3.49-3.6-1.49-.84-3.16-1.26-5.03-1.26s-3.55,.42-5.03,1.26c-1.48,.84-2.66,2.04-3.52,3.6-.86,1.56-1.29,3.35-1.29,5.36s.43,3.8,1.29,5.36c.86,1.56,2.03,2.77,3.52,3.63,1.49,.86,3.16,1.29,5.03,1.29s3.54-.43,5.03-1.29Z"/><path d="M1496.73,45.25c2.18,2.15,3.27,5.29,3.27,9.43v16.77h-5.28v-16.17c0-2.82-.68-4.95-2.03-6.38-1.36-1.43-3.3-2.14-5.83-2.14-2.86,0-5.11,.83-6.76,2.5-1.65,1.67-2.47,4.06-2.47,7.18v15.01h-5.28v-29.14h5.06v4.4c1.06-1.5,2.5-2.66,4.32-3.46s3.88-1.21,6.19-1.21c3.7,0,6.64,1.07,8.82,3.22Z"/></g></g></g></svg>