<?xml version="1.0" encoding="UTF-8"?>
<svg xmlns="http://www.w3.org/2000/svg" viewBox="0 0 1920 2000">
  <defs>
    <style>
      .cls-1 {
        letter-spacing: 0em;
      }

      .cls-2 {
        letter-spacing: -.07em;
      }

      .cls-3 {
        letter-spacing: -.04em;
      }

      .cls-4 {
        fill: #fff;
      }

      .cls-5 {
        letter-spacing: 0em;
      }

      .cls-6 {
        letter-spacing: 0em;
      }

      .cls-7 {
        letter-spacing: -.02em;
      }

      .cls-8 {
        letter-spacing: -.02em;
      }

      .cls-9 {
        letter-spacing: -.04em;
      }

      .cls-10 {
        fill: #b3282e;
      }

      .cls-11 {
        fill: #16181b;
        font-family: Nohemi-ExtraLight, Nohemi;
        font-size: 126.81px;
        font-weight: 200;
      }
    </style>
  </defs>
  <g id="Layer_1" data-name="Layer 1">
    <g>
      <g>
        <path class="cls-10" d="M1496.79,444.14c39.47,39.34,94.04,72.41,156.99,95.13,9.17,3.31,18.77,6.46,29.04,7.28,11.56.92,25.17-.7,33.28,4.92,5.39,3.74,6.02,9.36,10.07,13.74,7.58,8.19,25.35,9.91,38.76,6.86,13.41-3.05,23.96-9.59,35.48-14.91,11.51-5.33,25.7-9.66,39.81-7.41-13.66,10.83-27.32,21.67-40.98,32.5-2.36,1.87-4.81,3.89-5.13,6.34-.38,2.87,2.25,5.59,4.77,8.04,6.88,6.7,13.76,13.41,20.64,20.11,3.16,3.08,6.47,6.25,11.27,8.22,11.85,4.85,28.3.74,40.03,5.71-.91,5.09-9.52,7.8-17.32,8.4-7.8.6-16.17.03-23.09,2.33-8.09,2.68-12.96,8.94-21.93,10.15-5.05.68-10.41-.43-15.56-.08-5.56.38-10.37,2.41-15.51,3.75-19.38,5.07-41.86.18-62.95.99-28.74,1.1-53.28,12.71-73.85,25.37-22.09,13.6-42.71,30.77-42.29,51-52.66-14.3-103.11-32.38-150.08-53.82-9.03-4.12-18.98-8.57-29.72-8.06-6.48.31-12.28,2.41-17.86,4.47-12.63,4.66-25.25,9.32-37.88,13.98-4.39,1.62-9.86,3.25-14.38,1.53-3.75-1.42-4.99-4.48-6.64-7.09-7.71-12.2-33.31-18.14-50.16-11.64-16.85,6.5-20.52,23.74-7.19,33.77,8.16,6.14,20.4,9.12,32.12,11.66,11.72,2.54,24.01,5.1,32.98,10.74,8.97,5.64,13.18,15.46,5.75,21.58-17-8.13-41.45-8.56-58.11-1.04-6.95,3.14-12.51,7.44-19.53,10.51-7.02,3.07-16.52,4.77-24.26,2.08-13.37-4.64-11.4-17.33-6.45-26.35,2.9-5.29,6.12-11.09,2.99-16.49-4.36-7.5-18.46-10.3-26.79-16.27-11.02-7.88-10.03-20.41-2.08-29.26,7.95-8.86,21.33-14.89,34.31-20.66,16.32-7.25,32.63-14.5,48.95-21.75,3.18-3.99-2.75-8.58-7.68-11.97-4.93-3.39-9.22-9.19-3.87-12,3.92-2.06,9.89-.59,14.42,1.12,14.38,5.41,27.34,12.69,42.84,16.43,15.5,3.73,35.3,2.73,44.03-6.02,7.31-7.33,4.45-17.13,2.56-26.01s-1.47-19.38,9.51-24.39c6.7-3.06,15.98-3.28,22.2-6.73,9.61-5.31,7.66-15.27,5.5-23.6-2.16-8.32-2.38-18.66,8.63-22.69,3.36-1.23,7.41-1.67,10.41-3.24,3.7-1.93,5.07-5.19,5.79-8.29,3.44-14.7-3.64-30.58-18.82-42.21-2.67-2.04-5.71-4.16-6.23-6.78-.45-2.3,1.16-4.47,2.73-6.5,7.07-9.11,17.77-17,33.22-19.1,15.12-2.05,27.26,15.65,27.26,15.65Z"/>
        <path class="cls-10" d="M1339.95,814.97c5.01.56,9.34,2.73,14.23,3.7,11.49,2.28,24.13-3.3,26.4-10.84,2.27-7.54-4.82-15.79-15.39-19.6-10.57-3.82-23.72-3.54-34.31-.32-6.9-6.55-4.96-16.23,4.21-20.98,9.17-4.75,24.21-3.86,32.58,1.92,4.02,2.77,6.44,6.35,10.04,9.35,5.75,4.82,14.31,8.04,19.61,13.08,8.47,8.04,6.63,18.76,1.43,27.57-3.18,5.38-7.55,10.77-6.67,16.61,1.27,8.4,12.67,14.56,20.43,21.48,13.97,12.45,16.67,28.43,18.88,43.54,3.14,21.47,6.19,43.63-3.72,63.85-6.02,12.28-16.58,23.3-23.68,35.31-7.1,12.01-10.48,25.98-1.95,38.01-15.19-4.35-33.25-3.7-47,1.7-13.75,5.4-22.83,15.4-23.62,26.02-1.06,14.07,11.32,27.37,14.99,41.38,6.05,23.05-11.7,44.98-28.88,64.86,0,0-7.26,7.55-13.16,14.25-23.64,26.9-28.59,62.91,4.64,86.75-24.2.42-45.53,13.7-47.28,29.43-.3,2.67-.23,5.63-2.89,7.61-2.48,1.85-6.59,2.27-10.33,2.74-17.74,2.23-34.17,8.03-46.53,16.43-6.68-13.57.22-29.2,16.69-37.85,5.03-2.64,10.88-4.71,14.91-8,4.03-3.29,5.67-8.42,1.46-11.83-5.44-4.41-16.07-3.04-23.36-.39-19.31,7.02-32.69,20.32-35.08,34.85-4.49-10.47-28.05-12.76-41.07-6.52-13.02,6.25-18.03,17.24-22.52,27.46-4.49,10.22-10.04,21.18-23.58,26.95-.16-6.82-.32-13.64-.47-20.46-.1-4.3-.33-8.88-4.05-12.52-6.93-6.8-22.91-6.85-33.02-2.58-10.11,4.27-16.16,11.47-23.14,17.87-6.97,6.41-16.33,12.62-28.53,13.24-6.45.33-12.9-.96-19.25-2.05-24.5-4.21-49.97-5.55-74.83-3.95-.18-10.26-21.2-17.96-34.19-12.52-.13-8.64-4.2-20.21-17.44-20.8-5.84-.26-11.08,2.05-15,4.77-18.56,12.87-13.13,37.18,10.53,47.16-25.61,2.47-48.24,12.03-65.74,24.15-17.5,12.12-30.42,26.75-42.53,41.47-1.67,2.03-3.69,4.25-7.15,4.78-4.09.62-8.09-1.4-11.33-3.27-15.27-8.86-30.89-17.99-40.57-29.69-9.68-11.69-12.31-26.69-1.27-37.29,5.23-5.03,13.11-8.74,17.63-14.07,4.52-5.32,3.91-13.57-4.72-16.38-10.05-3.27-20.63,3.28-31.66,3.46-9.18-9.98-27.53-15.23-45.05-15.99-17.52-.76-34.61,2.26-51.32,5.26-16.71,3-19.56,4.33-30.56,8.96-16.87,7.11-36.75,10.45-57.22,10.1-20.47-.35-41.43-2.24-61.01,1.12-21.18,3.63-43.32,13.16-63.24,6.32-3.56-1.22-7.57-2.98-11.14-1.96-2.3.66-3.49,2.28-4.38,3.82-3.62,6.17-5.46,12.82-5.38,19.52.02,2.08.2,4.24-1.1,6.1-1.77,2.53-5.92,3.95-10.05,4.68-29.14,5.14-56.41-15.45-86.92-17.04-9.86-.51-19.85,1-29.5-.58-9.65-1.58-18.91-8.32-14.98-14.11,0,0,.25-5.99,2.36-9.08,3.7-5.42,11.23-8.96,20.45-9.14,9.22-.17,19.23,1,27.03-2.02,8.04-3.11,11.5-9.95,19.92-12.61,6.18-1.96,13.59-1.22,20.52-1.6,22.28-1.21,37.94-13.53,53.16-23.88,24.77-16.84,54.53-30.54,87.31-40.17,8.03-2.36,16.33-4.49,25.13-5.33,8.99-.85,18.23-.32,27.38.12,60.69,2.9,121.59,1.4,181.22-4.45,7.05-.69,14.58-1.4,21.21.56,4.07,1.21,7.37,3.31,10.93,5.09,26.25,13.12,69.51,4.7,78.72-15.32,2.31-5.01,2.74-10.4,5.47-15.31,5.67-10.2,20.16-16.8,33.41-23.25,22.05-10.73,43.81-23.95,49.2-41.78,3.48-11.53-.32-23.98,5.06-35.15,7.81-16.22,36.59-26.29,62.32-21.81,0,0-9.46,18.19-19.29,20.23-5.4,1.12-11.4.89-16.69,2.18-5.3,1.3-9.84,5.18-7.27,8.6,1.82,2.41,6.32,3.47,8.68,5.68,3.28,3.07,1.46,7.13,2.15,10.79,1.39,7.39,13.53,12.54,24.88,12.93,11.35.39,21.99-2.75,32.12-5.81,24.87-7.53,49.74-15.06,74.21-23.08,28.07-9.2,56.39-19.48,75.44-35.7,12.32-10.49,21.09-23.6,38.88-29.97,9.24-3.31,20.54-4.63,27.77-9.6,6.12-4.22,8.13-10.27,10.62-15.91,10.32-23.34,32.3-43.38,47.67-65.38,15.37-22.01,23.7-48.65,6.17-70.86,8.72-4.98-2.44-14.83.59-22.21,2.06-5.01,10.49-8.03,12.09-13.12,2.53-8.04-13.11-15.34-11.1-23.45,1.36-5.47,10.27-8.55,18.64-9.47,4.51-.5,9.33-.64,13.14-2.23,7.77-3.24,7.75-10.72,5.31-16.7-2.44-5.98-6.49-12.22-3.88-18.04,3.07-6.85,15.8-10.63,26.46-8.4,10.66,2.23,18.13,9.61,18.09,16.82-.02,3.98-2.02,7.92-.93,11.87,1.09,3.95,6.84,5.67,12.91,6.3,5.26.55,16.61-6.94,21.62-6.38Z"/>
        <path class="cls-10" d="M521.87,1429.76c9.06,5.02,18.11,10.04,27.17,15.06,2.05-15.73,21.66-27.47,41.58-36.01,11.5-4.93,25.23-11.8,21.86-20.77-1.61-4.28-6.89-7.57-11.92-10.59-13.36-8.02-27.47-16.32-44.78-19.44-18.57-3.36-39.28.17-52.31,8.9-8,5.36-13.39,12.55-23.24,16.43-8.41,3.31-18.81,3.69-28.78,4-6.47.2-13.57.27-18.84-2.35-4.61-2.28-6.87-6.21-11.65-8.33-10.27-4.56-23.36,2.26-27.48,9.63-4.11,7.37-4.64,16.14-13.12,21.62-4.77,3.08-11.39,4.62-16.9,7.12-5.51,2.51-10.18,6.83-8.16,11.16,2.29,4.92,11.68,7.06,15.38,11.63,6.98,8.64-10.08,19.44-2.13,27.73,1.89,1.97,4.92,3.36,7.86,4.68,9.1,4.1,18.21,8.21,27.31,12.31,2.29,1.03,4.67,2.09,7.37,2.44,9.91,1.27,15.39-7.07,15.02-13.62-.37-6.55-2.18-14.36,5.48-18.38,5.03-2.64,12.41-2.47,18.11-4.47,8.74-3.05,11.49-10.18,16.7-15.67,5.21-5.49,15.29-6.76,24.74-4.21,9.55,2.58,14.96,2.52,22.41.95,7.45-1.57,8.32.17,8.32.17Z"/>
        <path class="cls-10" d="M246.54,1405.82c6.27-2.18,12.69-4.67,19.91-4.66,7.23,0,15.2,3.32,15.77,8.04.71,5.87-9.06,9.22-16.46,12.36-7.4,3.14-13.32,10.74-5.85,14.21,3.33,1.54,7.7,1.26,11.68,1.66,13.55,1.34,21.98,10.38,28.36,18.41,4.41,5.55,8.96,11.63,7.37,17.64-1.31,4.95-6.57,8.91-11.6,12.63-35.29,26.11-70.87,57.08-65.59,92.58.92,6.21,1.73,14.21-6.9,16.61-7.53,2.09-17.99-1.91-24.08,1.62,4.31,7.36,1.51,16.1-6.85,21.42-8.36,5.31-21.83,6.92-33.02,3.92,3.12-7.65,14.79-12.26,20.32-19.26,7.65-9.68.48-23.45-14.89-28.58-13.61-1.79-22.22,9.97-18.16,18.67.79,1.68,1.86,3.41,1.43,5.12-.75,2.93-5.65,4.52-10.18,4.86-13.09.98-27.55-6.96-25.6-15.45,1.72-7.47,14.02-12.29,15.32-19.8,1.36-7.9-9.8-14.6-13.06-22.39-3.06-7.31,1.22-14.98,7.8-20.95,6.58-5.97,15.34-10.73,22.82-16.23,14.97-11.01,24.82-25.93,21.1-40.85-3.71-14.92-23.74-28.88-46.77-29.07-2.24-.02-4.54.1-6.49.77-6.21,2.14-5.29,8.02-4.55,12.68,1.12,7.03-.56,14.73-8.29,19.43-7.73,4.7-22.7,4.39-27.93-1.91-6.29-7.55,3.95-18.39-5.41-24.48-3.46-2.25-8.56-2.94-12.65-4.66-6.62-2.79-10.04-8.51-7.96-13.31,2.08-4.8,9.49-8.26,17.22-8.04,4.17.12,9.07,1.06,12-.81,2.83-1.8,1.7-4.92,2.42-7.49,1.86-6.65,15.34-8.25,25.68-7.02,10.34,1.24,21.74,3.77,30.59.4,12.27-4.67,10.48-16.86,18.5-24.5,8.29-7.89,28.17-8.94,39.21-2.07,12.58,7.83,12.91,23.52,29.13,27.34,8.63,2.03,18.21,3.76,25.63,1.18Z"/>
      </g>
      <path class="cls-10" d="M45.61,1429.19l3.61-76.92s70.89-2.31,74.38-2.15c3.5.16,57.21,14.95,56.96,15.64-.25.69,3.15,19.77-1.26,26.93-4.41,7.15-45.4,29.41-50.3,29.18-4.9-.23-38.19,7.32-42.06,7.49-3.86.17-41.33-.18-41.33-.18Z"/>
      <polygon class="cls-10" points="112.21 1590.74 115.9 1512.03 133.91 1511.47 172.33 1541.31 240.61 1508.07 246.6 1410.09 310.94 1396.26 307.32 1473.47 242.83 1513.08 186.26 1560.89 139.84 1556.96 112.21 1590.74"/>
      <path class="cls-10" d="M193.59,1276.28l-.34,65.65,63.62,22.2s43.86-23.83,45.74-25.55c1.89-1.72,39.05-24.05,45.26-27.98s52.69-27.43,53.73-39.22c1.04-11.79.92-19.62.92-19.62,0,0-44.05-.26-46.97-2.2-2.92-1.94-161.95,26.72-161.95,26.72Z"/>
      <path class="cls-10" d="M358.92,1348.98l-3.4,72.49,48.67,10.26,12.47-47.64,1.88,36.97s110.34-29.47,112.85-31.6c2.51-2.13,58.85-9.72,58.85-9.72l22.65,13.54,3.27-77.23-124.16,1.9-133.08,31.02Z"/>
      <path class="cls-10" d="M551.19,1223.81c-.23,4.81-3.43,47.4,2.58,47.68,6.01.28,92.72,25.42,92.72,25.42l31.46,5.06-3.62,77.21,36.74,4.13,40.95-103.13s-5.01-47.19-10.42-47.44c-5.41-.25-156.03-10.32-156.03-10.32l-34.38,1.4Z"/>
      <path class="cls-10" d="M853.69,1284.42l-3.62,77.21s-62.01-2.72-61.81-6.92c.2-4.2,7.52-70.52,9.44-72.92,1.92-2.4,56,2.62,56,2.62Z"/>
      <path class="cls-10" d="M1312.65,1195.39l-3.62,77.21-36.46-1.71s-24.25-73.41-22.34-75.72c1.91-2.32,1.23-.54,7.33-2.36,6.11-1.82,55.08,2.58,55.08,2.58Z"/>
      <path class="cls-10" d="M1347.61,1116.08l3.21-68.5s-53.13-4.3-55.62-2.61c-2.49,1.69-33.35,43.59-31.74,47.88,1.61,4.29,36.3,47.45,36.3,47.45l47.85-24.22Z"/>
      <path class="cls-10" d="M1402.05,1037.64l3.62-77.21-22.85-12.47s-34.72,19.86-35.23,20.23,54.46,69.46,54.46,69.46Z"/>
      <path class="cls-10" d="M1228.6,844.2l-1,33.57,49.23,6.83s16.59-109.99,11.87-112.02c-4.72-2.03-56.49-8.6-56.49-8.6l-3.62,80.22Z"/>
      <path class="cls-10" d="M1218.59,610.37l-2.49,83.13,38.77,4.65,5.62-55.72-13.34,66.2-3.97,39.51,25.1,1.18,140.25,24.29-1.78-46.69-43.95-37.76s-2.2-37.81-.37-38.33c1.83-.52,85.08-35.25,87.27-42.26,2.18-7.01-9.32-28.13-22.39-31.75-13.07-3.62-99.42,1.96-102.45,2.42-3.03.46-106.27,31.14-106.27,31.14Z"/>
      <path class="cls-10" d="M1293.92,533.11l-1.72,36.78s45.33-5.72,44.28-8.18c-1.05-2.46-20.9-22.05-20.9-22.05l-21.65-6.55Z"/>
      <path class="cls-10" d="M1437.2,376.87l-3.62,77.21s62.85,9.18,64.8,6.26c1.94-2.92-.85-71.68-.85-71.68l-60.32-11.8Z"/>
      <path class="cls-10" d="M1843.86,472.53l-3.9,83.29,34.5-2.36-3.62,77.21s-107.13-.17-107.62-2.6c-.49-2.43-20.8-44.32-17.46-51.39,3.34-7.07,29.54-52.19,32.85-58.66,3.31-6.47,20.4-24.33,22.26-25.44,1.86-1.12,42.99-20.05,42.99-20.05Z"/>
      <g>
        <path class="cls-4" d="M1500.41,366.92c39.47,39.34,94.04,72.41,156.99,95.13,9.17,3.31,18.77,6.46,29.04,7.28,11.56.92,25.17-.7,33.28,4.92,5.39,3.74,6.02,9.36,10.08,13.74,7.58,8.19,25.35,9.91,38.76,6.86,13.41-3.05,23.97-9.59,35.48-14.91,11.51-5.33,25.7-9.66,39.81-7.41-13.66,10.83-27.32,21.67-40.98,32.5-2.36,1.87-4.81,3.89-5.13,6.34-.38,2.87,2.25,5.59,4.77,8.04,6.88,6.7,13.76,13.41,20.64,20.11,3.16,3.08,6.47,6.25,11.27,8.22,11.84,4.85,28.3.74,40.03,5.71-.91,5.09-9.52,7.8-17.32,8.4-7.8.6-16.17.03-23.09,2.33-8.09,2.68-12.96,8.94-21.93,10.15-5.05.68-10.41-.43-15.56-.08-5.56.38-10.37,2.41-15.51,3.75-19.38,5.07-41.86.18-62.95.99-28.74,1.1-53.28,12.71-73.85,25.37-22.09,13.6-42.71,30.77-42.29,51-52.66-14.3-103.11-32.38-150.08-53.82-9.03-4.12-18.98-8.57-29.72-8.06-6.48.31-12.28,2.41-17.86,4.47-12.63,4.66-25.25,9.32-37.88,13.98-4.39,1.62-9.86,3.25-14.38,1.53-3.75-1.42-4.99-4.48-6.64-7.09-7.71-12.2-33.31-18.14-50.17-11.64-16.85,6.5-20.52,23.74-7.19,33.77,8.16,6.14,20.4,9.12,32.12,11.66,11.72,2.54,24.01,5.1,32.98,10.74,8.97,5.64,13.18,15.46,5.75,21.58-17-8.13-41.45-8.56-58.11-1.04-6.95,3.14-12.51,7.44-19.53,10.51-7.02,3.07-16.52,4.77-24.26,2.08-13.37-4.64-11.4-17.33-6.45-26.35,2.9-5.29,6.12-11.09,2.99-16.49-4.36-7.5-18.46-10.3-26.79-16.27-11.02-7.88-10.03-20.41-2.08-29.26,7.95-8.86,21.33-14.89,34.31-20.66,16.32-7.25,32.63-14.5,48.95-21.75,3.18-3.99-2.75-8.58-7.68-11.97-4.93-3.39-9.22-9.19-3.87-12,3.92-2.06,9.89-.59,14.42,1.12,14.38,5.41,27.34,12.69,42.84,16.43,15.5,3.73,35.3,2.73,44.03-6.02,7.31-7.33,4.45-17.13,2.56-26.01-1.88-8.88-1.47-19.38,9.51-24.39,6.7-3.06,15.98-3.28,22.2-6.73,9.61-5.31,7.66-15.27,5.5-23.6-2.16-8.32-2.38-18.66,8.63-22.69,3.36-1.23,7.41-1.67,10.41-3.24,3.7-1.93,5.07-5.19,5.79-8.29,3.44-14.7-3.64-30.58-18.82-42.21-2.67-2.04-5.71-4.16-6.23-6.78-.45-2.3,1.16-4.47,2.73-6.5,7.07-9.11,17.77-17,33.22-19.1,15.12-2.05,27.26,15.65,27.26,15.65Z"/>
        <path class="cls-4" d="M1343.57,737.75c5.01.56,9.35,2.73,14.23,3.7,11.49,2.28,24.13-3.3,26.4-10.84,2.27-7.54-4.82-15.79-15.39-19.6-10.57-3.82-23.72-3.54-34.31-.32-6.9-6.55-4.96-16.23,4.21-20.98,9.17-4.75,24.21-3.86,32.58,1.92,4.02,2.77,6.44,6.35,10.04,9.35,5.75,4.82,14.31,8.04,19.61,13.08,8.47,8.04,6.63,18.76,1.43,27.57-3.18,5.38-7.55,10.77-6.67,16.61,1.27,8.4,12.67,14.56,20.43,21.48,13.97,12.45,16.67,28.43,18.88,43.54,3.14,21.47,6.19,43.63-3.72,63.85-6.02,12.28-16.58,23.3-23.68,35.31-7.1,12.01-10.48,25.98-1.95,38.01-15.19-4.35-33.25-3.7-47,1.7-13.75,5.4-22.83,15.4-23.62,26.02-1.06,14.07,11.32,27.37,14.99,41.38,6.05,23.05-11.7,44.98-28.88,64.86,0,0-7.26,7.55-13.16,14.25-23.64,26.9-28.59,62.91,4.64,86.75-24.2.42-45.53,13.7-47.28,29.43-.3,2.67-.23,5.63-2.89,7.61-2.48,1.85-6.59,2.27-10.33,2.74-17.74,2.23-34.17,8.03-46.53,16.43-6.68-13.57.22-29.2,16.69-37.85,5.03-2.64,10.88-4.71,14.91-8,4.03-3.29,5.67-8.42,1.46-11.83-5.44-4.41-16.06-3.04-23.36-.39-19.31,7.02-32.69,20.32-35.08,34.85-4.49-10.47-28.05-12.76-41.07-6.52-13.02,6.25-18.03,17.24-22.52,27.46-4.49,10.22-10.04,21.18-23.58,26.95-.16-6.82-.32-13.64-.47-20.46-.1-4.3-.33-8.88-4.05-12.52-6.93-6.8-22.91-6.85-33.02-2.58-10.11,4.27-16.17,11.47-23.14,17.87-6.97,6.41-16.33,12.62-28.53,13.24-6.45.33-12.9-.96-19.25-2.05-24.5-4.21-49.97-5.55-74.83-3.95-.18-10.26-21.2-17.96-34.19-12.52-.13-8.64-4.2-20.21-17.44-20.8-5.84-.26-11.08,2.05-15,4.77-18.56,12.87-13.13,37.18,10.53,47.16-25.61,2.47-48.24,12.03-65.74,24.15s-30.42,26.75-42.53,41.47c-1.67,2.03-3.69,4.25-7.15,4.78-4.09.62-8.09-1.4-11.33-3.27-15.27-8.86-30.89-17.99-40.57-29.69-9.68-11.69-12.31-26.69-1.27-37.29,5.23-5.03,13.11-8.74,17.63-14.07,4.52-5.32,3.91-13.57-4.72-16.38-10.05-3.27-20.63,3.28-31.66,3.46-9.18-9.98-27.53-15.23-45.05-15.99-17.52-.76-34.61,2.26-51.32,5.26-16.71,3-19.56,4.33-30.56,8.96-16.87,7.11-36.75,10.45-57.22,10.1-20.47-.35-41.43-2.24-61.01,1.12-21.18,3.63-43.32,13.16-63.24,6.32-3.56-1.22-7.57-2.98-11.14-1.96-2.3.66-3.49,2.28-4.38,3.82-3.62,6.17-5.46,12.82-5.38,19.52.02,2.08.2,4.24-1.1,6.1-1.77,2.53-5.92,3.95-10.05,4.68-29.14,5.14-56.41-15.45-86.92-17.04-9.86-.51-19.85,1-29.5-.58-9.65-1.58-18.91-8.32-14.98-14.11,0,0,.25-5.99,2.36-9.08,3.7-5.42,11.23-8.96,20.45-9.14,9.22-.17,19.23,1,27.03-2.02,8.04-3.11,11.5-9.95,19.92-12.61,6.18-1.96,13.59-1.22,20.52-1.6,22.28-1.21,37.94-13.53,53.16-23.88,24.77-16.84,54.53-30.54,87.31-40.17,8.03-2.36,16.33-4.49,25.13-5.33,9-.85,18.23-.32,27.38.12,60.69,2.9,121.59,1.4,181.22-4.45,7.05-.69,14.58-1.4,21.21.56,4.07,1.21,7.37,3.31,10.93,5.09,26.25,13.12,69.51,4.7,78.72-15.32,2.31-5.01,2.74-10.4,5.47-15.31,5.67-10.2,20.16-16.8,33.41-23.25,22.05-10.73,43.81-23.95,49.2-41.78,3.48-11.53-.32-23.98,5.06-35.15,7.81-16.22,36.59-26.29,62.32-21.81,0,0-9.46,18.19-19.29,20.23-5.4,1.12-11.4.89-16.69,2.18-5.3,1.3-9.84,5.18-7.27,8.6,1.82,2.41,6.32,3.47,8.68,5.68,3.28,3.07,1.46,7.13,2.15,10.79,1.39,7.39,13.53,12.54,24.88,12.93,11.35.39,21.99-2.75,32.12-5.81,24.87-7.53,49.74-15.06,74.21-23.08,28.07-9.2,56.39-19.48,75.44-35.7,12.32-10.49,21.09-23.6,38.88-29.97,9.24-3.31,20.54-4.63,27.77-9.6,6.12-4.22,8.13-10.27,10.62-15.91,10.32-23.34,32.3-43.38,47.67-65.38,15.37-22.01,23.7-48.65,6.17-70.86,8.72-4.98-2.44-14.83.59-22.21,2.06-5.01,10.49-8.03,12.09-13.12,2.53-8.04-13.11-15.34-11.1-23.45,1.36-5.47,10.27-8.55,18.64-9.47,4.51-.5,9.33-.64,13.14-2.23,7.77-3.24,7.75-10.72,5.31-16.7-2.44-5.98-6.49-12.22-3.88-18.04,3.07-6.85,15.8-10.63,26.46-8.4,10.66,2.23,18.13,9.61,18.09,16.82-.02,3.98-2.02,7.92-.93,11.87,1.09,3.95,6.84,5.67,12.91,6.3,5.26.55,16.61-6.94,21.62-6.38Z"/>
        <path class="cls-4" d="M525.49,1352.54c9.06,5.02,18.11,10.04,27.17,15.06,2.05-15.73,21.66-27.47,41.58-36.01,11.5-4.93,25.23-11.8,21.86-20.77-1.61-4.28-6.89-7.57-11.92-10.59-13.36-8.02-27.47-16.32-44.78-19.44-18.57-3.36-39.28.17-52.31,8.9-8,5.36-13.39,12.55-23.24,16.43-8.41,3.31-18.81,3.69-28.78,4-6.47.2-13.57.27-18.84-2.35-4.61-2.28-6.87-6.21-11.65-8.33-10.27-4.56-23.36,2.26-27.48,9.63-4.11,7.37-4.64,16.14-13.12,21.62-4.77,3.08-11.39,4.62-16.9,7.12-5.51,2.51-10.18,6.83-8.16,11.16,2.29,4.92,11.68,7.06,15.38,11.63,6.98,8.64-10.08,19.44-2.13,27.73,1.89,1.97,4.92,3.36,7.86,4.68,9.1,4.1,18.21,8.21,27.31,12.31,2.29,1.03,4.67,2.09,7.37,2.44,9.91,1.27,15.39-7.07,15.02-13.62s-2.18-14.36,5.48-18.38c5.03-2.64,12.41-2.47,18.11-4.47,8.74-3.05,11.49-10.18,16.7-15.67,5.21-5.49,15.29-6.76,24.74-4.21,9.55,2.58,14.96,2.52,22.41.95,7.45-1.57,8.32.17,8.32.17Z"/>
        <path class="cls-4" d="M250.16,1328.6c6.27-2.18,12.69-4.67,19.91-4.66,7.23,0,15.2,3.32,15.77,8.04.71,5.87-9.06,9.22-16.46,12.36-7.4,3.14-13.32,10.74-5.85,14.21,3.33,1.54,7.7,1.26,11.68,1.66,13.55,1.34,21.98,10.38,28.36,18.41,4.41,5.55,8.96,11.63,7.37,17.64-1.31,4.95-6.57,8.91-11.6,12.63-35.29,26.11-70.87,57.08-65.59,92.58.92,6.21,1.73,14.21-6.9,16.61-7.52,2.09-17.99-1.91-24.08,1.62,4.31,7.36,1.51,16.1-6.85,21.42-8.36,5.31-21.83,6.92-33.02,3.92,3.12-7.65,14.8-12.26,20.32-19.26,7.65-9.68.48-23.45-14.89-28.58-13.61-1.79-22.22,9.97-18.16,18.67.79,1.68,1.86,3.41,1.43,5.12-.75,2.93-5.64,4.52-10.18,4.86-13.09.98-27.55-6.96-25.6-15.45,1.72-7.47,14.02-12.29,15.32-19.8,1.36-7.9-9.8-14.6-13.06-22.39-3.06-7.31,1.22-14.98,7.8-20.95,6.58-5.97,15.34-10.73,22.82-16.23,14.97-11.01,24.82-25.93,21.1-40.85-3.71-14.92-23.74-28.88-46.77-29.07-2.24-.02-4.54.1-6.49.77-6.21,2.14-5.29,8.02-4.55,12.68,1.12,7.03-.56,14.73-8.28,19.43-7.73,4.7-22.7,4.39-27.93-1.91-6.28-7.55,3.95-18.39-5.41-24.48-3.46-2.25-8.56-2.94-12.65-4.66-6.62-2.79-10.04-8.51-7.96-13.31,2.08-4.8,9.49-8.26,17.22-8.04,4.18.12,9.07,1.06,12-.81,2.83-1.8,1.7-4.92,2.42-7.49,1.86-6.65,15.34-8.25,25.68-7.02,10.34,1.24,21.74,3.77,30.59.4,12.27-4.67,10.48-16.86,18.5-24.5,8.29-7.89,28.17-8.94,39.21-2.07,12.58,7.83,12.91,23.52,29.13,27.34,8.63,2.03,18.21,3.76,25.63,1.18Z"/>
      </g>
    </g>
  </g>
  <g id="Layer_4" data-name="Layer 4">
    <text class="cls-11" transform="translate(933.05 1581.33)"><tspan class="cls-6" x="0" y="0">O</tspan><tspan class="cls-5" x="92.92" y="0">s</tspan><tspan x="160.66" y="0">a</tspan><tspan class="cls-9" x="234.81" y="0">k</tspan><tspan x="300.91" y="0">a</tspan></text>
    <circle cx="727.75" cy="1248.24" r="18.61"/>
    <rect x="651.09" y="1389.43" width="345.98" height="4.97" transform="translate(1521.29 -67.69) rotate(56.16)"/>
  </g>
  <g id="Layer_7" data-name="Layer 7">
    <text class="cls-11" transform="translate(237.71 1702.27)"><tspan x="0" y="0">Hi</tspan><tspan class="cls-7" x="104.96" y="0">r</tspan><tspan class="cls-1" x="149.5" y="0">o</tspan><tspan x="223.34" y="0">shima</tspan></text>
    <circle cx="384.1" cy="1248.24" r="18.61"/>
    <rect x="206.33" y="1418.67" width="345.98" height="4.97" transform="translate(1810.42 1081.29) rotate(91.58)"/>
  </g>
  <g id="Layer_5" data-name="Layer 5">
    <circle cx="1196.96" cy="1173.76" r="18.61"/>
    <text class="cls-11" transform="translate(1362.09 1155.16)"><tspan class="cls-2" x="0" y="0">T</tspan><tspan x="64.7" y="0">okio</tspan></text>
    <rect x="1196.96" y="1171.28" width="345.98" height="4.97"/>
  </g>
  <g id="Layer_6" data-name="Layer 6">
    <circle cx="728.78" cy="1202.15" r="18.61"/>
    <rect x="625.22" y="1041.22" width="345.98" height="4.97" transform="translate(-478.11 1355.91) rotate(-66.34)"/>
    <text class="cls-11" transform="translate(820.97 877.91)"><tspan x="0" y="0">Ki</tspan><tspan class="cls-8" x="101.82" y="0">o</tspan><tspan class="cls-3" x="174.07" y="0">t</tspan><tspan x="219.63" y="0">o</tspan></text>
  </g>
</svg>